{"title":"Rocky Handsome 2016 Movies DVDScr XViD New Source +Sample ☻rDX☻","uid":14026439,"size":740081974,"categoryP":"video","categoryS":"movies","magnet":"?xt=urn:btih:4ee47ae9c07b24d68870dd63a415d34d619bb839&amp;dn=Rocky+Handsome+2016+Movies+DVDScr+XViD+New+Source+%2BSample+%E2%98%BBrDX%E2%98%BB&amp;tr=udp%3A%2F%2Ftracker.leechers-paradise.org%3A6969&amp;tr=udp%3A%2F%2Fzer0day.ch%3A1337&amp;tr=udp%3A%2F%2Fopen.demonii.com%3A1337&amp;tr=udp%3A%2F%2Ftracker.coppersurfer.tk%3A6969&amp;tr=udp%3A%2F%2Fexodus.desync.com%3A6969","seeders":2,"leechers":0,"uploader":"basicssom","files":2,"time":1458923525,"description":"----------------------------------------------------------------\r\nRocky Handsome 2016 Hindi Movies DVDScr XViD AAC New Source with Sample ~ ☻rDX☻\r\n\r\nSCREEN SHOTS &amp; POSTER:\r\n  \nhttp://mobileshosting.com/2016/3/court/index.htm  \nhttp://mobileshosting.com/2016/3/court/1.html  \nhttp://mobileshosting.com/2016/3/court/2.html  \nhttp://mobileshosting.com/2016/3/court/3.html  \nhttp://mobileshosting.com/2016/3/court/4.html  \nhttp://mobileshosting.com/2016/3/court/5.html  \nhttp://mobileshosting.com/2016/3/court/6.html  \nhttp://mobileshosting.com/2016/3/court/7.html  \nhttp://mobileshosting.com/2016/3/court/8.html  \nhttp://mobileshosting.com/2016/3/court/9.html  \nhttp://mobileshosting.com/2016/3/court/10.html\r\n\r\nFormat                                   : Matroska\r\nFormat version                           : Version 4 / Version 2\r\nFile size                                : 689 MiB\r\nDuration                                 : 2h 4mn\r\nOverall bit rate                         : 776 Kbps\r\nMovie name                               : Rocky Handsome 2016 Hindi Movies DVDScr XViD AAC New Source ☻rDX☻\r\n\r\nVideo\r\nID                                       : 1\r\nFormat                                   : MPEG-4 Visual\r\nFormat profile                           : Advanced   \r\nFormat settings, BVOP                    : Yes\r\nFormat settings, QPel                    : No\r\nFormat settings, GMC                     : No warppoints\r\nFormat settings, Matrix                  : Default (H.263)\r\nCodec ID                                 : V_MS/VFW/FOURCC / XVID\r\nCodec ID/Hint                            : XviD\r\nDuration                                 : 2h 4mn\r\nBit rate                                 : 664 Kbps\r\nWidth                                    : 640 pixels\r\nHeight                                   : 272 pixels\r\nDisplay aspect ratio                     : 2.35:1\r\nFrame rate mode                          : Constant\r\nFrame rate                               : 23.976 fps\r\nColor space                              : YUV\r\nChroma subsampling                       : 4:2:0\r\nBit depth                                : 8 bits\r\nScan type                                : Progressive\r\nCompression mode                         : Lossy\r\nBits/(Pixel*Frame)                       : 0.159\r\nStream size                              : 590 MiB (86%)\r\nTitle                                    : ☻rDX☻\r\nWriting library                          : XviD 67\r\nDefault                                  : Yes\r\nForced                                   : No\r\n\r\nAudio\r\nID                                       : 2\r\nFormat                                   : MPEG Audio\r\nFormat version                           : Version 1\r\nFormat profile                           : Layer 3\r\nMode                                     : Joint stereo\r\nMode extension                           : MS Stereo\r\nCodec ID                                 : A_MPEG/L3\r\nCodec ID/Hint                            : MP3\r\nDuration                                 : 2h 4mn\r\nBit rate mode                            : Constant\r\nBit rate                                 : 96.0 Kbps\r\nChannel(s)                               : 2 channels\r\nSampling rate                            : 32.0 KHz\r\nCompression mode                         : Lossy\r\nStream size                              : 85.3 MiB (12%)\r\nTitle                                    : ☻rDX☻\r\nWriting library                          : LAME3.99r\r\nEncoding settings                        : -m j -V 4 -q 2 -lowpass 15.1 -b 96\r\nDefault                                  : Yes\r\nForced                                   : No\r\n\r\nIMDB \nhttp://www.imdb.com/title/tt3410408/","torrent":{"xt":"urn:btih:4ee47ae9c07b24d68870dd63a415d34d619bb839","amp;dn":"Rocky+Handsome+2016+Movies+DVDScr+XViD+New+Source+%2BSample+%E2%98%BBrDX%E2%98%BB","amp;tr":["udp%3A%2F%2Ftracker.leechers-paradise.org%3A6969","udp%3A%2F%2Fzer0day.ch%3A1337","udp%3A%2F%2Fopen.demonii.com%3A1337","udp%3A%2F%2Ftracker.coppersurfer.tk%3A6969","udp%3A%2F%2Fexodus.desync.com%3A6969"],"infoHash":"4ee47ae9c07b24d68870dd63a415d34d619bb839","infoHashBuffer":{"type":"Buffer","data":[78,228,122,233,192,123,36,214,136,112,221,99,164,21,211,77,97,155,184,57]},"announce":[],"urlList":[]}}